<svg width="128" height="128" viewBox="0 0 128 128" xmlns="http://www.w3.org/2000/svg">
  <defs>
    <linearGradient id="gearGradient" x1="0%" y1="0%" x2="100%" y2="100%">
      <stop offset="0%" stop-color="#9ad7d1" />
      <stop offset="100%" stop-color="#4b857f" />
    </linearGradient>
  </defs>
  <circle cx="64" cy="64" r="22" fill="#0f1f22" opacity="0.2" />
  <path fill="url(#gearGradient)" d="M70.8 17.4c-3.2-.6-10.4-.6-13.6 0l-2.3 10.4a36.5 36.5 0 0 0-9 3.8l-8.5-6.5c-2.6 1.7-7.5 6.6-9.2 9.2l6.5 8.5a36.5 36.5 0 0 0-3.8 9l-10.4 2.3c-.6 3.2-.6 10.4 0 13.6l10.4 2.3a36.5 36.5 0 0 0 3.8 9l-6.5 8.5c1.7 2.6 6.6 7.5 9.2 9.2l8.5-6.5a36.5 36.5 0 0 0 9 3.8l2.3 10.4c3.2.6 10.4.6 13.6 0l2.3-10.4a36.5 36.5 0 0 0 9-3.8l8.5 6.5c2.6-1.7 7.5-6.6 9.2-9.2l-6.5-8.5a36.5 36.5 0 0 0 3.8-9l10.4-2.3c.6-3.2.6-10.4 0-13.6l-10.4-2.3a36.5 36.5 0 0 0-3.8-9l6.5-8.5c-1.7-2.6-6.6-7.5-9.2-9.2l-8.5 6.5a36.5 36.5 0 0 0-9-3.8L70.8 17.4ZM64 44a20 20 0 1 1 0 40 20 20 0 0 1 0-40Z"/>
</svg>
