<svg width="128" height="128" viewBox="0 0 128 128" xmlns="http://www.w3.org/2000/svg">
<defs>
<linearGradient id="bookCover" x1="0%" y1="0%" x2="100%" y2="100%">
<stop offset="0%" stop-color="#9ed9c9" />
<stop offset="100%" stop-color="#2d7c6d" />
</linearGradient>
<linearGradient id="bookSpine" x1="0%" y1="0%" x2="0%" y2="100%">
<stop offset="0%" stop-color="#245e53" />
<stop offset="100%" stop-color="#1b443d" />
</linearGradient>
<linearGradient id="pageShade" x1="0%" y1="0%" x2="100%" y2="0%">
<stop offset="0%" stop-color="#f4fbf7" />
<stop offset="100%" stop-color="#d6ede3" />
</linearGradient>
</defs>
<g fill="none" fill-rule="evenodd">
<path d="M26 22c-2.21 0-4 1.79-4 4v76c0 2.21 1.79 4 4 4h60c4.42 0 8 3.58 8 8v-88c0-2.21-1.79-4-4-4H26Z" fill="url(#pageShade)" />
<path d="M34 18h54c2.21 0 4 1.79 4 4v84c0 2.21-1.79 4-4 4H34c-2.21 0-4-1.79-4-4V22c0-2.21 1.79-4 4-4Z" fill="url(#bookCover)" />
<path d="M38 26h44c1.66 0 3 1.34 3 3v52c0 1.66-1.34 3-3 3H38c-1.66 0-3-1.34-3-3V29c0-1.66 1.34-3 3-3Z" fill="#0f1f22" opacity="0.1" />
<path d="M30 18h10v92H30c-2.21 0-4-1.79-4-4V22c0-2.21 1.79-4 4-4Z" fill="url(#bookSpine)" />
<path d="M42 36h40v4H42zM42 48h32v4H42zM42 60h36v4H42z" fill="#e9f6f1" />
<path d="M86 24h4c2.21 0 4 1.79 4 4v84c0 2.21-1.79 4-4 4h-4V24Z" fill="#1d5b50" opacity="0.45" />
<path d="M28 20h20c4.42 0 8 3.58 8 8V106c0-4.42-3.58-8-8-8H28V20Z" fill="#102522" opacity="0.18" />
</g>
</svg>
