<?xml version="1.0" encoding="UTF-8"?>
<svg id="Layer_1" data-name="Layer 1" xmlns="http://www.w3.org/2000/svg" viewBox="0 0 1080 1080">
  <path d="M399.38,405.21c9.13-7.68,24.28-10.11,33.44-.95l238.77,236.4c11.46,13.47,10.8,24.56.37,38.6-27.36,36.82-87.9,86.08-122.72,119.35-32.42,30.98-58.83,67.3-101.91,86.37-140.21,62.05-287.74-46.78-273-198.29,8.62-88.61,108.5-164.78,168.91-222.59,17.76-17,39.16-44.61,56.14-58.9Z"/>
  <path d="M741.48,115.2c130.22-15.63,229.27,79.34,218.93,209.96-9.39,118.7-148.36,198.77-218.21,283.86-4.46,4.34-9.82,7.8-16.29,7.39-7.42-.48-37.21-28.48-45.12-35.76-72.88-67.11-139.61-144.35-212.17-212.21-10.05-9.77-10.05-23.22,0-32.99,78.85-63.15,167.35-207.6,272.85-220.26Z"/>
</svg>