<?xml version="1.0" encoding="UTF-8"?>
<svg id="Layer_1" data-name="Layer 1" xmlns="http://www.w3.org/2000/svg" viewBox="0 0 1080 1080">
  <path d="M197.02,896.28h850.25c14.8,0,18.47,69.74-5.83,68.88l-895.3-1.56c-6.77-2.99-14.04-5.75-16.54-13.35l-1.47-802.76c0-7.56,6.21-14.81,13.68-16.2,8.91-1.66,55.21-2.63,55.21,10.38v754.61Z"/>
  <path d="M988.09,844.61c-2.71,3.36-10.88,6.41-15.42,6.97-27.52,3.43-119.51,3.65-146.72.03-9.09-1.21-14.01-6.67-18.65-14.22l-.75-394.01c-.31-8.84,2.81-18.01,11.92-20.96l154.25-1.48c8.56.13,14.46,7.59,18.65,14.22l.74,394c-.2,5.43-.42,11.01-4.01,15.45Z"/>
  <path d="M820.38,321.23c-55.83,57.1-112.45,113.69-169.15,170.04h-23.81l-78.29-78.47-6.38-.22-209.73,211.76c-2.97,1.99-6.89,4.24-10.36,4.79-12.59,2-55.62-36.99-39.13-54.27,76.33-75.08,151.1-151.73,227.36-226.88,9.35-9.21,20.76-29.48,37.06-28.45,15.68.99,71.61,69.79,88.38,82.27h2.99l203.21-206.32-51.59-53.14c-5.78-16.94,7.94-24.82,23.06-26.19,46.63-4.22,99.4,3.55,146.74-.01,7.55,0,14.81,6.21,16.2,13.68-3.18,48.17,4.5,102.05.22,149.49-1.59,17.57-11.31,27.82-29.26,20.02-11.65-5.06-48.49-52.57-55.64-51.32-25.64,22.75-48.02,48.83-71.89,73.25Z"/>
  <path d="M548.82,577.14l162.19.9c9.02,6.56,11.16,13,12.14,23.72,6.63,72.07-5.29,154.17-.08,227.34-1.88,16.07-10.03,21.1-25.33,22.49-32.7,2.98-108.74,3.67-140.67-.08-16.07-1.88-21.1-10.03-22.49-25.33-6.66-73.08,5.3-156.14.09-230.32.31-9.3,4.86-16.6,14.14-18.73Z"/>
  <path d="M282.83,699.67c46.97,3.46,106.49-6.79,151.93-.79,12.04,1.59,17.98,11.04,19.34,22.5,2.72,22.9,2.66,84.75,0,107.72-1.59,13.73-8.58,20.81-22.41,22.41-28.38,3.3-115.9,3.78-143.67.09-8.05-1.07-17.6-8.26-19.2-16.66-3.54-18.61-2.14-92.4-.2-113.64.98-10.79,2.3-18.55,14.23-21.64Z"/>
</svg>