<?xml version="1.0" encoding="UTF-8"?>
<svg id="Layer_1" data-name="Layer 1" xmlns="http://www.w3.org/2000/svg" viewBox="0 0 1080 1080">
  <defs>
    <style>
      .cls-1 {
        fill: none;
        stroke: #000;
        stroke-linecap: round;
        stroke-miterlimit: 10;
        stroke-width: 40px;
      }
    </style>
  </defs>
  <path d="M431.15,504.65c21.73-15.37,12.91-110.69,108.85-110.69s87.12,95.32,108.85,110.69c25.82,18.27,54.4,50.53,69.82,102.32,20.73-43.59,32.74-95.28,32.74-150.72,0-155.67-94.65-281.87-211.4-281.87s-211.4,126.2-211.4,281.87c0,55.44,12.01,107.13,32.74,150.72,15.41-51.79,43.99-84.05,69.82-102.32Z"/>
  <path d="M630.38,524.69c-18.04-12.77-10.72-91.91-90.38-91.91s-72.34,79.15-90.38,91.91c-31.26,22.12-67.4,68.94-67.4,154.72s78.13,133.28,157.79,133.28,157.79-47.49,157.79-133.28-36.14-132.6-67.4-154.72ZM469.02,604.15h138.64c8.28,0,15,6.72,15,15s-6.72,15-15,15h-138.64c-8.28,0-15-6.72-15-15s6.72-15,15-15ZM634.33,703.26h-191.98c-8.28,0-15-6.72-15-15s6.72-15,15-15h191.98c8.28,0,15,6.72,15,15s-6.72,15-15,15Z"/>
  <path class="cls-1" d="M540,792.28s-12.71,168.79,168.79,168.79,175.37-221.32,175.37-354.09"/>
</svg>