<?xml version="1.0" encoding="UTF-8"?>
<svg id="Layer_1" data-name="Layer 1" xmlns="http://www.w3.org/2000/svg" viewBox="0 0 1080 1080">
  <path d="M586.66,172.49c12.9,12.92,6.91,77.02,9.82,79.86,1.15,1.12,11.32.03,13.63-2.8,24.97-37.03,46.46-67.35,92.04-78.3,79.32-19.05,249.02,3.61,305.28,69.1,80.89,94.19-2.89,235.25-55.36,322.78-4.91.81-2.78-4.03-2.95-7.4-.4-7.74,1.85-30.24-1.29-34.62-4.49-6.25-45.41-4.33-50.95-14.79-1.4-2.65-10.69-43.35-10.08-45.6,2.6-9.6,33.01-26.39,31.82-39.05-.43-4.55-51.66-67.45-57.49-70.84-22-12.81-35.62,27.6-47.43,26.56-8.11-.71-31.3-20.32-43.41-20.91-1.91-17.89-1.76-38.19-6.28-55-5.71-3.98-93.25-2.67-101.12.68-12.12,5.16-4.2,42.21-7.06,54.39-11.6-.21-34.76,19.2-42.78,18.49-10.47-.92-26.51-31.2-37.78-28.72-5.35,1.18-19,16.1-23.72,21.01-6.13,6.38-44.6,50.29-44.7,53.8-.35,13.09,34.1,35.02,34.81,41.85.25,2.42-11,45.33-13.21,46.35-9.84,3.85-51.28.91-53.33,13.34,6.14,16.41,7.09,84.86,15.22,94.32,8.8,10.25,45.54-6.44,58.36,1.42,2.11,1.29,27.5,38.28,28.38,40.6,5.15,13.5-22.08,36.4-15.11,50.65,2.94,6,12.82,3.07,10.56,11.89-20.99-8.22-31.47,6.96-50.01,14.25-73.44,28.85-140.58,30.34-204.04,85.85-42.24,36.95-65.17,89.21-122.53,110.58-48.3,17.99-114.89,14.47-122.18-48.11-5.53-47.46,11.99-91.86,1.33-144.78-10.77-53.44-31.05-98.74-34.65-156.62C23.68,312.61,144.84,193.9,406.71,171.67c43.96-3.73,116.28-9.99,158.52-6.16,6.3.57,17.02,2.56,21.42,6.98Z"/>
  <path d="M697.36,420.47c150.53-20.62,165.75,214.24,20.01,220.42-141.83,6.02-148.79-202.78-20.01-220.42Z"/>
</svg>