<?xml version="1.0" encoding="UTF-8"?>
<svg id="Layer_1" data-name="Layer 1" xmlns="http://www.w3.org/2000/svg" viewBox="0 0 1080 1080">
  <path d="M688.6,153.94v79.2c0,2.01,5.75,16.24,7.32,19.58,21.33,45.54,88.4,49.46,114.73,6.83,2.32-3.76,9.45-20.41,9.45-23.42v-82.19h79.2c29.03,0,69.04,36.64,70.24,67.23l.11,657.61c-4.52,39.07-36.94,70.25-76.22,73.21l-720.48.02c-34.1-.43-63.82-25.17-75.24-56.25-8.85-222.93-1.37-447.89-3.79-671.56-.06-31.7,39.79-70.27,70.2-70.27h74.71c.32,0,4.48,4.17,4.48,4.48v80.69c0,2.9,9.28,20.16,11.97,23.89,36.98,51.26,115.87,26.49,118.39-36.36.76-18.91-5.31-46.32-1.85-65.24.45-2.48,2.38-7.47,4.48-7.47h312.3ZM903.78,366.13H159.62v506.56c0,.83,7.2,7.24,9.02,8.91l726.19.08c2.08-1.01,8.94-10.67,8.94-11.98v-503.57Z"/>
  <path d="M338.18,80.01c3.05,2.86,6.31,13.95,6.82,18.58,2.76,24.95,3.42,110.64-.79,133.85-6.3,34.73-57.7,39.07-70.22,2.9-6.36-18.36-6.34-114.33-3-135.89,1.25-8.04,4.48-20.03,13.29-22.57,7.8-2.25,48.51-1.92,53.89,3.14Z"/>
  <path d="M732.55,76.86c11.78-3.44,55.3-4.64,57.02,13.47l.47,142.64c-9.7,36.51-65.46,35.19-71.36-3.01-3.28-21.22-3.36-113.04-.02-134.12,1.04-6.57,7.4-17.08,13.9-18.98Z"/>
  <path d="M266.36,447.46c14.46-3.23,84.51-2.67,101.04-.71,11.46,1.36,20.91,7.3,22.5,19.34,2.59,19.64,2.24,78.77-.09,98.84-1.61,13.83-8.68,20.83-22.41,22.41-16.61,1.92-89.18,2.14-102.68-2.05-10.54-3.27-14.26-9.59-15.5-20.36-2.4-20.8-2.41-74.98,0-95.77,1.19-10.29,6.41-19.31,17.14-21.71Z"/>
  <path d="M263.35,656.64c9.09-2.66,94.61-2.45,107.13-.78,10.06,1.34,18.06,9.2,19.43,19.43,1.58,11.83,1.16,99.27-1.72,106.19-2.42,5.81-11.3,11.33-17.71,12.18-19.52,2.6-78.87,2.23-98.85-.09-13.83-1.61-20.83-8.68-22.41-22.41-2.32-20.04-2.36-72.79,0-92.78.92-7.8,6.09-19.38,14.13-21.73Z"/>
  <path d="M693.71,447.45c14.2-3.19,81.77-2.58,98.06-.69,13.83,1.61,20.83,8.68,22.41,22.41,1.73,15,2.13,91.92-1.41,103.32-3.32,10.7-13.94,13.65-24.06,14.79-14.72,1.66-86.02,2.18-97.28-1.34-9.37-2.93-13.77-11.71-14.85-21.01-2.02-17.37-2.8-85.96.14-101.6,1.33-7.06,10.13-14.35,16.99-15.88Z"/>
  <path d="M481.53,447.46c13.9-3.1,79.23-2.58,95.06-.71,14.06,1.66,23.72,11.04,25.4,25.4,1.68,14.3,1.7,89.39-2.33,99.41-3.57,8.86-13.74,14.69-23.07,15.78-16.24,1.9-80.26,2.15-94.29-1.48-11.29-2.93-16.57-9.58-17.91-20.94-2.25-19.07-2.62-80.2.23-98.5,1.39-8.91,7.92-16.96,16.9-18.96Z"/>
  <path d="M690.71,656.64c9.72-2.83,87.75-2.26,101.06-.68,11.46,1.36,20.91,7.3,22.5,19.34,2.52,19.09,2.18,76.35-.09,95.85-1.61,13.83-8.68,20.83-22.41,22.41-12.76,1.48-95.54,1.52-103.1-1.63-5.81-2.42-11.33-11.3-12.18-17.71-2.05-15.43-2.46-87.63.22-101.7.98-5.12,9.12-14.47,14-15.89Z"/>
  <path d="M478.52,656.64c9.88-2.88,87.51-2.25,101.06-.68,16.14,1.86,20.66,10.39,22.35,25.47,1.88,16.79,2.34,79.75-1.41,94.22-2.93,11.29-9.58,16.57-20.94,17.91-14.61,1.72-92.13,1.76-102.38-2.32-7.26-2.89-11.87-9.38-12.88-17-2.05-15.55-2.48-87.53.22-101.7.98-5.12,9.12-14.47,14-15.89Z"/>
</svg>