<?xml version="1.0" encoding="UTF-8"?>
<svg id="Layer_1" data-name="Layer 1" xmlns="http://www.w3.org/2000/svg" viewBox="0 0 1080 1080">
  <path d="M268.69,146.26c-18.23-10.8-59.92,33.61-67.68,49.32-25.83,52.3-6.49,162.1,12.15,216.93,84.86,249.56,415.53,238.25,487.9-15.73,18.93-66.45,45.8-218.77-41.11-248.73-25.28-8.72-18.51,4.09-32,17.23-41.68,40.61-114.67,9.25-110.67-50.85,3.34-50.24,64.26-74.97,104.39-47.68,28.66,19.49,21.01,13.57,53.85,23.85,156.35,48.96,106.07,303.35,45.48,409.8-42,73.79-107.94,118.35-187.25,144.48-23.09,7.61-49.84,2.3-52.49,31.19-3.51,38.29-2.42,111.43,3.49,149.2,28.91,184.72,278.48,187.11,307.08,5.24-126.24-39.84-103.58-227.83,28.64-236.61,119.2-7.91,178.18,142.31,86.73,215.23-10.83,8.64-47.94,23.05-50.61,27.09-4.19,6.33-13.05,45.14-19.03,58.67-85.53,193.66-364.52,161.91-407.93-35.41-12.9-58.62.53-124.29-4.87-183.41-.49-5.36-.32-9.66-3.43-14.5-5.23-8.16-47.53-16.1-60.1-20.59-103.27-36.84-177.84-116.66-208.62-221.73-30.8-105.15-53.51-264.8,67.25-321.36,20.2-9.46,35.12-7.34,50.37-12.39,3.7-1.23,8.52-11.48,14.09-15.8,52.2-40.55,128.58,9.46,102.01,75.11-17.02,42.04-73.26,51.63-105.26,20.46-4.64-4.52-11.41-18.44-12.39-19.02ZM812.32,654.48c-59.77,12.15-59.94,112.69,5.56,121.58,100.63,13.67,97.41-142.52-5.56-121.58Z"/>
</svg>