<?xml version="1.0" encoding="UTF-8"?>
<svg id="Layer_1" data-name="Layer 1" xmlns="http://www.w3.org/2000/svg" viewBox="0 0 1080 1080">
  <path d="M148.49,578.89c17.67-17.36,37.75-34.92,52.34-53.84-111.58-138.21-77.78-344.68,77.47-433.53,226.82-129.82,493.79,81.57,419.25,332.58-52.84,177.94-265.63,255.82-423.25,159.4l-169.24,168.59c-37.01,37.52-100.25,5.64-79.22-46.34,10.29-25.41,97.74-102.37,122.66-126.85ZM568.28,493.54c158.61-157.19,6.45-424.69-212.86-354.79-148.2,47.24-194.19,246.34-80.08,351.8,17.49-73.09,133.15-70.02,192.92-65.87,42.59,2.96,94.9,20.17,100.02,68.86Z"/>
  <path d="M1058.35,1043.42l-581.29-2.95c3.42-100.92,117.17-96.39,184.64-123.25,16.11-6.41,28.28-14.7,20.77-34.34-6.96-18.18-39.6-48.29-51.09-71.44-46.65-93.96-6.2-223.29,106.03-239.91,161.68-23.95,237.32,142.1,150.07,266.62-17.74,25.32-62.5,56.7-14.34,78.2,68.59,30.62,181.91,20.68,185.22,127.06Z"/>
  <path d="M412.11,216.39c121.14-15.86,136.01,176.54,17.11,184.51-114.24,7.66-129.91-169.74-17.11-184.51Z"/>
</svg>